<?xml version="1.0" standalone="no"?>
<!DOCTYPE svg PUBLIC "-//W3C//DTD SVG 20010904//EN"
 "http://www.w3.org/TR/2001/REC-SVG-20010904/DTD/svg10.dtd">
<svg version="1.0" xmlns="http://www.w3.org/2000/svg"
 width="1155.000000pt" height="1155.000000pt" viewBox="0 0 1155.000000 1155.000000"
 preserveAspectRatio="xMidYMid meet">
<metadata>
Created by potrace 1.14, written by Peter Selinger 2001-2017
</metadata>
<g transform="translate(0.000000,1155.000000) scale(0.100000,-0.100000)"
fill="#000000" stroke="none">
<path d="M1250 11375 c0 -175 0 -175 23 -176 25 0 62 -5 122 -14 22 -4 47 -8
55 -9 79 -12 111 -20 116 -27 3 -5 9 -7 14 -4 23 14 200 -68 265 -124 73 -63
142 -185 148 -260 1 -12 4 -21 7 -21 3 0 7 -26 9 -58 7 -97 5 -5413 -2 -5477
-25 -232 -134 -364 -362 -438 -27 -9 -61 -19 -75 -21 -14 -3 -25 -5 -25 -6 0
-1 -9 -3 -20 -5 -18 -3 -63 -10 -125 -21 -14 -2 -56 -7 -95 -10 -38 -3 -81 -7
-95 -9 l-25 -2 -3 -175 -2 -174 132 4 c73 2 189 5 258 7 69 3 502 7 962 10
l837 5 -4 -82 c-2 -46 -7 -130 -11 -188 -16 -229 -4 -693 20 -827 3 -15 8 -57
12 -93 3 -36 8 -74 10 -85 2 -11 9 -47 14 -80 17 -104 20 -119 35 -180 8 -33
16 -73 19 -90 2 -16 5 -30 6 -30 1 0 3 -7 5 -15 14 -72 103 -364 140 -460 29
-77 27 -73 93 -225 115 -265 323 -607 487 -801 22 -26 54 -64 70 -83 17 -20
41 -48 55 -62 14 -15 48 -51 76 -80 58 -61 159 -156 225 -211 110 -93 168
-138 177 -138 6 0 12 -3 14 -7 4 -10 75 -63 83 -63 4 0 13 -6 20 -12 30 -27
44 -38 49 -38 3 0 29 -15 58 -33 91 -58 332 -186 348 -184 3 0 24 -10 47 -21
22 -12 58 -28 80 -35 245 -90 301 -110 318 -112 11 -1 20 -3 20 -4 0 -2 8 -4
19 -6 10 -2 55 -13 100 -24 44 -11 92 -22 106 -24 14 -2 32 -7 40 -10 13 -5
89 -18 130 -23 8 -1 17 -3 20 -4 3 -1 19 -3 35 -5 17 -2 50 -6 75 -8 25 -3 77
-9 115 -13 96 -10 540 -11 650 -1 133 13 147 14 180 20 17 3 53 8 80 12 28 4
61 8 75 10 14 2 84 16 155 31 72 15 139 28 150 30 11 1 20 3 20 4 0 2 35 10
100 24 11 2 58 14 105 26 104 27 130 33 153 34 9 0 17 3 17 6 0 3 8 6 18 7 25
3 57 10 150 33 46 11 99 21 118 23 19 1 34 5 34 8 0 3 6 6 13 6 14 1 80 11
117 18 103 21 178 31 290 40 36 3 88 9 115 13 28 3 178 6 335 7 255 0 365 -4
495 -20 22 -2 60 -7 85 -9 81 -10 135 -17 155 -21 19 -4 20 1 20 122 l0 126
-55 36 c-86 57 -161 137 -206 221 -10 19 -19 37 -19 40 -1 3 -9 22 -18 44 -9
21 -17 42 -17 47 0 5 -4 17 -9 27 -11 20 -37 121 -45 172 -3 19 -8 46 -11 60
-8 41 -17 103 -21 145 -1 22 -5 69 -8 105 -25 280 -24 794 0 1021 3 30 7 68 8
84 3 28 14 96 22 140 3 11 7 36 10 55 3 19 8 38 11 42 2 5 6 16 8 27 7 38 64
168 94 216 31 50 128 155 142 155 4 0 14 6 21 13 35 33 193 95 298 118 l50 11
0 162 0 163 -237 -6 c-313 -7 -2318 -7 -2640 0 l-253 6 0 -164 c0 -148 2 -163
18 -164 9 0 26 -2 37 -4 11 -2 44 -6 73 -10 46 -6 132 -26 279 -64 48 -13 156
-65 216 -105 54 -36 167 -142 167 -157 0 -4 6 -14 13 -21 26 -26 103 -186 118
-243 39 -156 49 -202 45 -218 -2 -9 0 -17 6 -17 5 0 9 -10 8 -22 -1 -13 -1
-25 0 -28 21 -50 32 -604 16 -790 -4 -47 -9 -107 -11 -135 -11 -126 -81 -409
-121 -487 -8 -15 -14 -29 -13 -30 4 -6 -44 -94 -67 -125 -13 -17 -24 -36 -24
-41 0 -5 -33 -43 -72 -84 -97 -100 -189 -160 -310 -204 -42 -15 -56 -19 -99
-29 -11 -2 -29 -7 -40 -10 -115 -37 -437 -34 -604 5 -27 6 -59 13 -69 16 -11
2 -49 13 -85 25 -36 12 -67 21 -69 20 -1 -1 -17 6 -35 16 -17 9 -35 17 -39 18
-3 0 -10 3 -14 8 -4 4 -16 7 -26 7 -10 0 -18 5 -18 11 0 5 -5 7 -10 4 -6 -3
-10 -3 -10 2 0 4 -10 13 -23 18 -48 23 -113 61 -131 78 -11 9 -25 17 -32 17
-7 0 -14 3 -16 8 -1 4 -28 26 -58 49 -30 23 -70 55 -89 72 -19 17 -39 31 -43
31 -5 0 -6 5 -3 10 3 6 2 10 -3 10 -9 0 -69 60 -150 149 -18 20 -55 65 -83
101 -27 36 -53 70 -58 76 -20 26 -142 214 -151 235 -6 13 -19 38 -29 54 -39
69 -55 100 -53 108 1 4 -2 7 -8 7 -5 0 -10 4 -10 10 0 5 -19 49 -41 97 -23 49
-42 94 -42 101 0 6 -4 12 -9 12 -4 0 -8 6 -8 13 0 6 -14 45 -30 86 -37 91
-103 282 -103 299 0 6 -4 12 -8 12 -4 0 -6 8 -4 18 1 9 -1 22 -5 27 -4 6 -10
21 -13 35 -3 14 -19 77 -36 140 -17 63 -32 125 -33 137 -1 13 -5 23 -8 23 -3
0 -6 10 -6 23 -1 12 -4 36 -8 52 -16 76 -25 123 -32 160 -4 22 -8 45 -9 50 -2
6 -5 28 -9 50 -3 22 -8 56 -11 75 -13 79 -26 193 -50 432 -27 257 -26 971 0
1163 2 17 7 57 9 90 3 33 8 76 10 95 3 19 8 53 10 75 8 59 16 117 21 145 3 14
8 41 11 60 3 19 9 51 14 70 5 19 11 51 14 71 3 20 8 42 10 50 3 8 8 25 10 39
8 38 34 135 62 230 30 99 31 103 33 113 0 4 7 20 16 37 8 16 16 37 18 47 2 10
11 36 21 58 10 22 26 61 36 86 39 97 179 364 199 379 4 3 18 23 31 44 67 110
271 334 375 411 22 17 42 32 45 35 15 15 71 50 80 50 5 0 10 4 10 9 0 8 183
103 260 135 50 20 169 56 209 62 18 3 43 8 55 11 125 29 366 33 526 9 14 -2
48 -7 75 -11 89 -13 127 -23 273 -71 104 -34 265 -108 357 -164 28 -16 59 -34
70 -40 11 -6 34 -21 50 -33 17 -12 55 -40 85 -61 30 -22 60 -44 65 -50 6 -6
32 -29 60 -51 85 -68 245 -233 345 -355 25 -30 51 -61 57 -68 7 -7 13 -17 13
-20 0 -4 10 -18 23 -32 43 -47 247 -367 247 -388 0 -6 4 -12 9 -14 4 -1 26
-39 48 -83 22 -45 45 -90 51 -100 22 -40 96 -200 94 -203 -1 -1 4 -15 13 -31
l15 -29 220 -1 219 -1 -9 25 c-5 14 -7 25 -4 25 2 0 -1 10 -8 23 -6 12 -13 27
-14 34 -3 20 -35 116 -45 138 -5 11 -11 29 -12 40 -2 11 -6 27 -9 35 -5 12
-19 59 -33 110 -1 3 -5 23 -10 45 -4 22 -12 46 -18 53 -5 6 -7 12 -4 12 3 0 1
15 -4 33 -6 17 -12 41 -14 52 -3 11 -11 47 -19 80 -9 33 -17 71 -20 85 -2 14
-11 54 -20 90 -14 61 -22 103 -31 160 -2 14 -7 43 -10 65 -4 22 -9 47 -12 55
-3 8 -7 26 -8 40 -1 14 -7 54 -13 90 -25 148 -25 143 -37 250 -2 25 -7 65 -10
90 -2 25 -7 68 -9 95 -3 28 -7 68 -10 90 -3 22 -8 81 -11 130 -3 50 -8 102
-11 117 l-5 27 -50 -19 c-50 -20 -117 -39 -154 -44 -11 -1 -38 -6 -60 -10 -74
-13 -119 -16 -260 -16 -133 -1 -181 2 -285 16 -25 3 -58 8 -75 9 -61 6 -481
96 -525 113 -8 3 -26 7 -40 9 -14 2 -32 6 -40 10 -8 3 -22 7 -30 8 -8 1 -28 6
-45 9 -16 4 -43 10 -60 13 -33 6 -39 7 -75 16 -29 7 -76 15 -140 23 -25 3 -52
8 -60 10 -8 3 -37 8 -65 10 -27 3 -66 7 -85 9 -171 23 -679 23 -785 1 -11 -2
-47 -6 -80 -9 l-60 -6 35 17 c19 9 46 25 59 34 13 9 28 15 31 13 4 -3 13 2 20
10 7 8 17 15 22 15 14 0 204 115 253 152 6 5 44 34 85 65 214 163 412 390 515
590 22 43 42 80 46 83 3 3 15 30 28 60 12 30 26 64 31 75 16 38 32 84 31 89 0
3 7 22 15 41 8 20 12 40 9 45 -4 6 -1 10 4 10 6 0 10 3 10 8 -1 4 0 10 1 15 4
11 6 19 15 67 10 53 12 59 15 63 1 1 3 11 4 22 2 11 6 43 10 70 4 28 9 61 11
75 5 35 18 202 16 218 -1 16 -2 32 -1 95 2 111 -11 267 -30 362 -5 28 -12 64
-15 80 -9 54 -65 240 -92 305 -3 8 -5 18 -5 23 1 4 -3 7 -8 7 -5 0 -9 3 -8 8
2 11 -54 126 -67 134 -5 4 -7 8 -3 8 10 0 -84 141 -146 220 -59 75 -170 188
-241 245 -28 22 -53 44 -56 48 -4 5 -15 14 -26 20 -11 7 -62 40 -112 74 -50
35 -91 60 -91 56 0 -3 -8 1 -18 9 -23 20 -159 89 -263 134 -105 45 -328 124
-351 124 -10 0 -18 4 -18 8 0 4 -8 9 -17 10 -22 2 -43 7 -63 15 -8 3 -26 8
-40 10 -14 3 -52 12 -86 21 -34 8 -72 17 -85 20 -13 2 -42 8 -64 14 -22 5 -43
9 -48 10 -52 8 -90 15 -127 22 -25 5 -61 12 -80 15 -129 19 -172 25 -225 30
-33 4 -73 8 -90 10 -16 2 -66 7 -110 10 -44 3 -96 8 -115 10 -167 21 -820 24
-1780 11 -630 -9 -1170 -6 -1567 9 l-143 5 0 -175z m3241 -239 c116 -7 155
-13 304 -47 67 -15 221 -66 259 -87 17 -9 33 -17 36 -17 14 -4 59 -28 95 -51
22 -13 48 -27 58 -31 9 -3 17 -9 17 -14 0 -5 6 -9 14 -9 8 0 16 -3 18 -7 2 -5
28 -28 58 -53 102 -84 223 -222 279 -320 63 -109 81 -144 81 -155 0 -7 4 -15
8 -17 10 -3 94 -238 86 -238 -2 0 0 -8 5 -19 6 -10 13 -33 16 -52 3 -19 8 -41
10 -49 8 -28 32 -170 41 -245 14 -116 7 -539 -10 -632 -2 -10 -7 -38 -10 -63
-13 -93 -49 -255 -69 -305 -6 -16 -12 -33 -13 -37 -1 -5 -3 -10 -4 -13 -1 -3
-3 -8 -4 -12 -11 -42 -31 -93 -36 -93 -4 0 -7 -6 -7 -13 0 -17 -76 -167 -120
-236 -91 -144 -237 -302 -368 -399 -38 -29 -74 -56 -80 -60 -102 -78 -456
-236 -578 -258 -17 -3 -37 -10 -44 -16 -8 -6 -16 -8 -19 -5 -3 3 -27 -1 -52
-8 -40 -12 -94 -23 -194 -39 -13 -2 -43 -7 -67 -11 -24 -4 -60 -9 -80 -10 -20
-2 -36 -4 -36 -5 0 -3 -103 -9 -268 -16 l-167 -7 2 1774 3 1773 33 10 c17 5
32 12 32 15 0 4 12 8 26 9 14 1 31 5 37 9 7 4 17 8 22 9 6 1 25 5 44 9 19 3
37 7 40 9 3 2 31 7 61 11 30 4 66 10 80 12 14 2 61 6 104 9 44 2 81 5 82 7 4
4 174 -1 275 -7z m722 -3906 c-4 -4 -48 -29 -98 -55 -131 -70 -413 -257 -445
-295 -3 -3 -23 -19 -44 -36 -102 -76 -420 -396 -435 -438 -2 -6 -9 -15 -16
-21 -45 -39 -254 -347 -316 -465 -19 -36 -36 -67 -39 -70 -8 -8 -84 -165 -125
-260 -21 -47 -39 -87 -41 -89 -2 -2 -4 358 -4 800 l0 804 148 1 c133 1 435 12
522 18 19 2 80 6 135 11 141 10 265 23 308 31 10 2 46 6 80 9 34 3 69 8 77 10
8 2 35 7 60 10 25 3 56 8 70 10 14 3 39 7 55 10 52 9 78 14 81 18 2 2 11 4 19
4 9 0 12 -3 8 -7z"/>
</g>
</svg>
